<?xml version="1.0" encoding="UTF-8"?>
<!-- Generator: visioncortex VTracer 0.6.3 -->
<svg version="1.1" xmlns="http://www.w3.org/2000/svg" width="1280" height="142">
<path d="M0 0 C8.25 0 16.5 0 25 0 C25.99 0.99 26.98 1.98 28 3 C32.14 3.72 35.8 4 40 4 C40.33 3.01 40.66 2.02 41 1 C41.49 1.99 41.49 1.99 42 3 C42.62 3 43.24 2.99 43.88 2.99 C59.01 2.93 74.15 2.88 89.28 2.84 C96.6 2.83 103.92 2.81 111.24 2.77 C117.63 2.74 124.02 2.72 130.4 2.72 C133.78 2.71 137.15 2.7 140.53 2.68 C180.6 2.45 180.6 2.45 195.38 16.4 C203.14 24.09 205.09 30.2 207 41 C207.33 41.99 207.66 42.98 208 44 C209.04 53.33 206.01 60.21 201.75 68.31 C200.21 71.35 199.23 73.54 200 77 C200.62 77.56 201.25 78.11 201.89 78.69 C206.44 83.68 208.08 93.28 208.5 100 C207.86 106.3 206.59 116.41 202 121 C201.44 122.07 200.89 123.14 200.31 124.25 C198.33 127.82 195.91 130.05 192.73 132.58 C190.76 134.14 190.76 134.14 188.31 136.81 C186.07 138.93 185.01 139.67 182 140 C182 140.66 182 141.32 182 142 C121.94 142 61.88 142 0 142 C0 95.14 0 48.28 0 0 Z M31 38 C31.33 43.94 31.66 49.88 32 56 C39.19 56.94 46.24 57.17 53.49 57.19 C55.32 57.21 55.32 57.21 57.19 57.22 C61.2 57.24 65.22 57.26 69.23 57.27 C70.62 57.28 72.01 57.28 73.4 57.29 C79.17 57.31 84.94 57.33 90.71 57.34 C98.96 57.36 107.21 57.39 115.45 57.45 C121.27 57.49 127.09 57.51 132.9 57.51 C136.37 57.51 139.84 57.53 143.31 57.56 C147.17 57.59 151.03 57.59 154.9 57.58 C156.61 57.61 156.61 57.61 158.36 57.63 C165.01 57.63 165.01 57.63 170.76 54.65 C173.32 52.2 173.32 52.2 173 49 C173.15 47.3 173.15 47.3 173.31 45.56 C173.38 41.91 173.38 41.91 170.84 39.85 C161.9 34.02 148.48 35.72 138.1 35.77 C136.49 35.77 134.88 35.77 133.27 35.77 C129.91 35.77 126.55 35.78 123.18 35.79 C118.95 35.81 114.71 35.81 110.47 35.81 C94.35 35.81 78.26 35.87 62.16 36.79 C52.57 37.32 52.57 37.32 48.56 36.5 C42.83 35.38 36.31 35.35 31 38 Z M198 67 C197.67 67.99 197.34 68.98 197 70 C197.99 69.67 198.98 69.34 200 69 C200 68.34 200 67.68 200 67 C199.34 67 198.68 67 198 67 Z M34 88 C33.67 88.99 33.34 89.98 33 91 C32.01 91.5 32.01 91.5 31 92 C31.11 94.44 31.24 96.88 31.38 99.31 C31.41 100 31.44 100.69 31.47 101.4 C31.68 105.07 31.92 106.88 34 110 C36.42 110.46 36.42 110.46 39.3 110.39 C40.99 110.4 40.99 110.4 42.71 110.42 C43.95 110.41 45.19 110.41 46.46 110.4 C47.77 110.41 49.07 110.42 50.41 110.42 C53.98 110.44 57.56 110.44 61.13 110.44 C64.11 110.43 67.09 110.44 70.08 110.44 C77.11 110.46 84.15 110.46 91.18 110.45 C98.44 110.43 105.7 110.45 112.96 110.48 C119.19 110.5 125.42 110.5 131.65 110.5 C135.38 110.49 139.1 110.5 142.82 110.51 C146.97 110.53 151.12 110.52 155.28 110.5 C156.51 110.51 157.75 110.52 159.02 110.53 C160.15 110.52 161.28 110.51 162.45 110.5 C163.92 110.5 163.92 110.5 165.42 110.5 C168.73 109.86 169.9 108.57 172 106 C173.6 102.8 173.49 99.47 173 96 C170.36 92.14 167.45 91.12 163 90 C158.89 89.72 154.78 89.75 150.66 89.77 C149.42 89.77 148.18 89.77 146.9 89.77 C143.52 89.77 140.13 89.78 136.75 89.8 C133.2 89.81 129.66 89.81 126.12 89.81 C119.41 89.82 112.71 89.84 106 89.86 C98.37 89.88 90.73 89.89 83.1 89.9 C67.4 89.92 51.7 89.96 36 90 C36.33 89.34 36.66 88.68 37 88 C36.01 88 35.02 88 34 88 Z " fill="#FAFCFC" transform="translate(0,0)"/>
<path d="M0 0 C0.66 0.33 1.32 0.66 2 1 C3.42 1.11 4.85 1.15 6.28 1.16 C7.18 1.18 8.08 1.19 9.01 1.2 C10.49 1.21 10.49 1.21 12 1.22 C13.04 1.23 14.08 1.24 15.15 1.26 C18.6 1.29 22.05 1.32 25.5 1.35 C27.89 1.37 30.27 1.4 32.66 1.42 C37.68 1.47 42.69 1.52 47.7 1.56 C54.14 1.61 60.57 1.68 67 1.74 C71.94 1.79 76.87 1.84 81.81 1.88 C84.18 1.9 86.56 1.93 88.93 1.95 C92.24 1.98 95.56 2.01 98.87 2.04 C100.35 2.05 100.35 2.05 101.86 2.07 C103.21 2.08 103.21 2.08 104.59 2.09 C105.77 2.1 105.77 2.1 106.97 2.11 C109.2 2.08 109.2 2.08 112 1 C113.06 1.21 113.06 1.21 114.14 1.43 C118.01 2.2 121.76 2.15 125.69 2.12 C126.84 2.13 126.84 2.13 128.03 2.14 C132.14 2.23 132.14 2.23 136 1 C138.38 1.34 138.38 1.34 141.12 1.94 C142.04 2.13 142.95 2.33 143.88 2.53 C144.58 2.68 145.28 2.84 146 3 C147 6 147 6 146 9 C146.66 9 147.32 9 148 9 C148.06 12.56 148.09 16.12 148.12 19.69 C148.14 20.69 148.16 21.7 148.18 22.74 C148.18 23.72 148.19 24.69 148.2 25.7 C148.21 26.59 148.22 27.49 148.23 28.41 C147.97 31.32 147.36 33.42 146 36 C140.18 37.94 133.59 37.31 127.56 36.44 C124.26 36.03 123.05 36.21 120 37 C118.4 37.09 116.79 37.13 115.19 37.13 C114.28 37.13 113.37 37.14 112.43 37.14 C111.48 37.13 110.54 37.13 109.56 37.12 C108.62 37.13 107.68 37.13 106.71 37.14 C105.8 37.14 104.88 37.13 103.94 37.13 C103.11 37.13 102.29 37.13 101.43 37.13 C99 37 99 37 96.93 36.5 C92.83 35.8 88.8 35.85 84.64 35.85 C83.24 35.85 83.24 35.85 81.81 35.84 C78.72 35.84 75.62 35.83 72.53 35.83 C70.37 35.83 68.21 35.83 66.05 35.82 C61.53 35.82 57 35.81 52.47 35.81 C46.69 35.81 40.92 35.8 35.14 35.78 C30.68 35.77 26.22 35.77 21.75 35.77 C19.63 35.77 17.5 35.77 15.37 35.76 C0.18 35.7 0.18 35.7 -14.85 37.67 C-15.56 37.78 -16.27 37.89 -17 38 C-17.33 37.67 -17.66 37.34 -18 37 C-18.33 38.32 -18.66 39.64 -19 41 C-19.99 41 -20.98 41 -22 41 C-22.14 41.8 -22.29 42.61 -22.44 43.44 C-23 46 -23 46 -24 47 C-24.23 48.35 -24.41 49.7 -24.56 51.06 C-24.71 52.36 -24.85 53.66 -25 55 C-24.18 55 -23.36 55 -22.51 54.99 C-2.53 54.95 17.45 54.92 37.43 54.9 C47.09 54.89 56.75 54.87 66.41 54.85 C74.83 54.83 83.25 54.82 91.67 54.81 C96.13 54.81 100.59 54.8 105.05 54.79 C109.25 54.77 113.44 54.77 117.64 54.77 C119.18 54.77 120.72 54.77 122.26 54.76 C124.36 54.75 126.46 54.75 128.57 54.76 C129.74 54.76 130.92 54.76 132.13 54.75 C135 55 135 55 138 57 C138.51 59.71 138.51 59.71 138.69 62.94 C138.75 64 138.82 65.06 138.89 66.15 C139.08 71.1 139 76.05 139 81 C138.01 81 137.02 81 136 81 C136.99 81.33 137.98 81.66 139 82 C138.65 84.56 138.35 86.51 136.85 88.65 C134.13 90.63 132.03 90.37 128.69 90.35 C128.05 90.36 127.41 90.36 126.75 90.36 C124.59 90.36 122.43 90.34 120.28 90.32 C118.74 90.32 117.19 90.32 115.65 90.32 C111.45 90.32 107.25 90.3 103.06 90.27 C98.67 90.25 94.29 90.24 89.9 90.24 C81.59 90.22 73.28 90.19 64.97 90.16 C50.08 90.1 35.19 90.06 20.3 90.03 C15.08 90.02 9.85 90 4.62 89.97 C1.37 89.96 -1.88 89.95 -5.12 89.94 C-6.63 89.94 -8.14 89.93 -9.65 89.92 C-11.71 89.91 -13.76 89.9 -15.82 89.9 C-17.55 89.89 -17.55 89.89 -19.31 89.89 C-21.97 89.82 -21.97 89.82 -24 91 C-24.23 95.79 -24.23 95.79 -22 100 C-22 100.99 -22 101.98 -22 103 C-21.34 103 -20.68 103 -20 103 C-19.67 103.66 -19.34 104.32 -19 105 C-14.65 107.63 -11.4 108.37 -6.35 108.37 C-5.7 108.38 -5.06 108.38 -4.4 108.38 C-2.25 108.39 -0.11 108.38 2.03 108.37 C3.57 108.37 5.11 108.38 6.65 108.38 C9.96 108.39 13.28 108.39 16.59 108.38 C21.82 108.37 27.06 108.38 32.29 108.4 C45.29 108.43 58.3 108.44 71.3 108.44 C81.41 108.43 91.52 108.44 101.63 108.48 C106.84 108.49 112.04 108.49 117.25 108.48 C120.48 108.47 123.72 108.48 126.95 108.5 C128.45 108.5 129.95 108.5 131.46 108.49 C133.5 108.47 135.55 108.49 137.6 108.5 C138.75 108.5 139.89 108.5 141.07 108.5 C144.6 109.1 145.78 110.27 148 113 C147.67 113.99 147.34 114.98 147 116 C147.33 116.33 147.66 116.66 148 117 C148.25 120.64 148.19 124.29 148.19 127.94 C148.2 128.97 148.21 129.99 148.22 131.05 C148.23 132.03 148.23 133.02 148.23 134.03 C148.23 134.93 148.24 135.84 148.24 136.77 C148 139 148 139 146 141 C143.05 141.25 143.05 141.25 139.19 141.24 C138.13 141.24 138.13 141.24 137.05 141.25 C134.66 141.25 132.28 141.24 129.89 141.23 C128.19 141.23 126.48 141.23 124.78 141.23 C120.14 141.23 115.5 141.22 110.86 141.2 C106.02 141.19 101.18 141.19 96.33 141.19 C87.16 141.18 77.98 141.16 68.8 141.14 C58.36 141.12 47.92 141.11 37.47 141.1 C15.98 141.08 -5.51 141.04 -27 141 C-27 140.34 -27 139.68 -27 139 C-27.7 138.73 -28.4 138.46 -29.12 138.19 C-32.16 136.93 -35.07 135.5 -38 134 C-38 133.34 -38 132.68 -38 132 C-38.99 131.67 -39.98 131.34 -41 131 C-41.5 130.01 -41.5 130.01 -42 129 C-42.87 128.63 -42.87 128.63 -43.75 128.25 C-51.28 124.07 -54.54 114.76 -57 107 C-57.33 106.67 -57.66 106.34 -58 106 C-59.13 100.09 -59.15 94.27 -59.13 88.27 C-59.13 87.25 -59.13 86.22 -59.14 85.17 C-59.14 83 -59.13 80.84 -59.13 78.68 C-59.13 75.41 -59.13 72.13 -59.14 68.86 C-59.15 43.84 -59.15 43.84 -58 38 C-57.01 37.51 -57.01 37.51 -56 37 C-55.2 35.28 -55.2 35.28 -54.56 33.25 C-53.37 29.9 -52.09 26.91 -50 24 C-49.34 24 -48.68 24 -48 24 C-47.67 22.35 -47.34 20.7 -47 19 C-46.34 19 -45.68 19 -45 19 C-44.81 18.44 -44.63 17.89 -44.44 17.31 C-42.65 14.44 -40.55 13.09 -37.75 11.25 C-35.94 10.04 -35.94 10.04 -34.46 8.35 C-33 7 -33 7 -30 7 C-29.42 6.7 -28.83 6.4 -28.23 6.1 C-21.09 2.59 -7.71 -0.57 0 2 C0 1.34 0 0.68 0 0 Z M144 32 C144 32.66 144 33.32 144 34 C143.01 34.49 143.01 34.49 142 35 C142.99 35 143.98 35 145 35 C144.67 34.01 144.34 33.02 144 32 Z M-24 40 C-23 42 -23 42 -23 42 Z M-26 43 C-26.33 43.99 -26.66 44.98 -27 46 C-26.01 45.67 -25.02 45.34 -24 45 C-24.66 44.34 -25.32 43.68 -26 43 Z M127 87 C128 89 128 89 128 89 Z M134 87 C135 89 135 89 135 89 Z " fill="#FAFBFB" transform="translate(278,1)"/>
<path d="M0 0 C1.05 0.01 2.1 0.01 3.18 0.02 C8.73 0.06 14.27 0.1 19.82 0.15 C25.51 0.2 31.2 0.23 36.89 0.25 C41.3 0.27 45.72 0.31 50.13 0.35 C52.23 0.37 54.33 0.38 56.42 0.38 C71.62 0.42 85.25 1.56 98.46 10.02 C100.89 12.71 100.89 12.71 102.46 15.02 C103.45 15.68 104.44 16.34 105.46 17.02 C106.64 20.14 106.64 20.14 107.46 23.02 C107.79 22.36 108.12 21.7 108.46 21.02 C108.79 22.34 109.12 23.66 109.46 25.02 C110.12 25.02 110.78 25.02 111.46 25.02 C112.26 27 113.05 28.98 113.83 30.96 C114.27 32.06 114.71 33.16 115.17 34.3 C117.75 41.77 118.75 48.69 118.68 56.58 C118.68 57.49 118.68 58.4 118.68 59.33 C118.68 62.3 118.67 65.27 118.65 68.24 C118.65 70.31 118.65 72.39 118.64 74.46 C118.64 79.89 118.62 85.32 118.59 90.75 C118.57 96.3 118.56 101.85 118.55 107.4 C118.53 118.27 118.5 129.15 118.46 140.02 C106.91 140.02 95.36 140.02 83.46 140.02 C83.46 129.79 83.46 119.56 83.46 109.02 C79.97 109.02 76.49 109.03 72.9 109.04 C61.4 109.05 49.9 109.06 38.39 109.07 C31.42 109.08 24.44 109.08 17.47 109.09 C10.74 109.11 4.01 109.11 -2.72 109.11 C-5.29 109.12 -7.86 109.12 -10.43 109.13 C-14.02 109.13 -17.62 109.13 -21.21 109.13 C-22.81 109.14 -22.81 109.14 -24.43 109.14 C-28.3 109.14 -31.94 109.13 -35.75 108.45 C-39.4 107.76 -39.4 107.76 -46.54 109.02 C-46.54 119.25 -46.54 129.48 -46.54 140.02 C-57.43 140.02 -68.32 140.02 -79.54 140.02 C-79.63 127.6 -79.71 115.17 -79.75 102.75 C-79.77 96.98 -79.8 91.21 -79.84 85.44 C-79.89 79.87 -79.91 74.29 -79.92 68.71 C-79.93 66.6 -79.94 64.48 -79.97 62.36 C-80.15 44.09 -78.45 29.21 -65.11 15.52 C-63.84 14.28 -63.84 14.28 -62.54 13.02 C-61.76 12.22 -60.98 11.41 -60.17 10.58 C-57.08 7.57 -53.84 4.79 -50.54 2.02 C-50.87 3.34 -51.2 4.66 -51.54 6.02 C-50.55 5.36 -49.56 4.7 -48.54 4.02 C-47.02 3.61 -45.47 3.26 -43.92 2.96 C-40.95 2.55 -40.95 2.55 -38.54 1.02 C-25.77 -0.42 -12.83 -0.1 0 0 Z M-40.54 39.02 C-41.2 38.69 -41.86 38.36 -42.54 38.02 C-42.54 38.68 -42.54 39.34 -42.54 40.02 C-43.53 40.51 -43.53 40.51 -44.54 41.02 C-44.54 42.01 -44.54 43 -44.54 44.02 C-45.03 44.92 -45.03 44.92 -45.53 45.85 C-46.82 48.62 -46.8 50.75 -46.81 53.81 C-46.81 54.91 -46.81 56.02 -46.82 57.16 C-46.81 58.31 -46.8 59.46 -46.79 60.64 C-46.8 61.8 -46.81 62.96 -46.82 64.15 C-46.81 65.26 -46.81 66.36 -46.81 67.5 C-46.81 68.51 -46.8 69.52 -46.8 70.56 C-46.78 73.2 -46.78 73.2 -44.54 75.02 C-42.24 75.32 -42.24 75.32 -39.53 75.27 C-37.94 75.27 -37.94 75.27 -36.32 75.28 C-34.57 75.27 -34.57 75.27 -32.78 75.26 C-31.56 75.26 -30.33 75.27 -29.07 75.27 C-25.7 75.27 -22.33 75.27 -18.96 75.26 C-15.44 75.25 -11.92 75.25 -8.4 75.25 C-2.49 75.25 3.42 75.24 9.33 75.23 C16.17 75.21 23.01 75.2 29.85 75.21 C36.42 75.21 43 75.2 49.57 75.19 C52.37 75.19 55.17 75.19 57.97 75.19 C61.88 75.19 65.79 75.18 69.7 75.16 C70.86 75.17 72.03 75.17 73.23 75.17 C74.29 75.16 75.35 75.16 76.45 75.15 C77.37 75.15 78.3 75.15 79.25 75.15 C81.5 75.16 81.5 75.16 83.46 74.02 C84.14 69.39 84.26 64.7 84.46 60.02 C84.5 59.05 84.54 58.08 84.59 57.08 C84.74 50.14 83.51 44.79 79.46 39.02 C73.87 33.82 67.23 33.73 60.01 33.76 C58.62 33.76 58.62 33.76 57.19 33.75 C54.12 33.74 51.04 33.75 47.97 33.75 C45.82 33.75 43.68 33.75 41.53 33.75 C37.04 33.75 32.55 33.75 28.06 33.76 C22.31 33.77 16.57 33.76 10.83 33.75 C6.4 33.74 1.97 33.75 -2.46 33.75 C-4.58 33.75 -6.69 33.75 -8.81 33.75 C-11.78 33.74 -14.74 33.75 -17.71 33.76 C-19.01 33.75 -19.01 33.75 -20.33 33.75 C-27.3 33.8 -35.25 33.95 -40.54 39.02 Z M-47.54 42.02 C-46.54 44.02 -46.54 44.02 -46.54 44.02 Z " fill="#FBFCFC" transform="translate(516.54296875,1.98046875)"/>
<path d="M0 0 C0.5 0.99 0.5 0.99 1 2 C1.99 2 2.98 2 4 2 C4.33 1.34 4.66 0.68 5 0 C5.66 0 6.32 0 7 0 C7 0.66 7 1.32 7 2 C7.73 1.84 8.46 1.68 9.21 1.51 C11.77 1.04 14.05 0.87 16.64 0.87 C17.54 0.87 18.44 0.87 19.37 0.86 C20.34 0.87 21.32 0.87 22.33 0.87 C23.88 0.87 23.88 0.87 25.47 0.87 C28.9 0.86 32.33 0.86 35.75 0.87 C38.14 0.87 40.52 0.87 42.9 0.86 C47.89 0.86 52.88 0.86 57.87 0.87 C64.27 0.88 70.68 0.87 77.08 0.87 C82 0.86 86.91 0.86 91.83 0.87 C94.19 0.87 96.55 0.87 98.91 0.86 C102.21 0.86 105.51 0.87 108.8 0.87 C110.27 0.87 110.27 0.87 111.77 0.86 C112.67 0.87 113.56 0.87 114.49 0.87 C115.27 0.87 116.05 0.87 116.85 0.87 C119.02 1 120.92 1.4 123 2 C123.33 1.34 123.66 0.68 124 0 C124 0.66 124 1.32 124 2 C124.76 1.99 125.51 1.99 126.29 1.98 C129.74 1.96 133.18 1.95 136.62 1.94 C138.41 1.92 138.41 1.92 140.23 1.91 C141.38 1.91 142.54 1.91 143.73 1.9 C145.31 1.89 145.31 1.89 146.93 1.89 C150.08 2 152.94 2.24 156 3 C158.36 6.54 158.23 8.01 158.2 12.2 C158.19 14.01 158.19 14.01 158.18 15.86 C158.16 17.12 158.14 18.39 158.12 19.69 C158.12 20.96 158.11 22.24 158.1 23.55 C158.07 26.7 158.04 29.85 158 33 C157.34 33 156.68 33 156 33 C155.67 34.32 155.34 35.64 155 37 C139.82 37 124.64 37 109 37 C109 36.34 109 35.68 109 35 C108.23 35.24 108.23 35.24 107.44 35.49 C104.25 36.16 101.24 36.11 97.98 36.1 C97.28 36.1 96.58 36.09 95.86 36.09 C94.34 36.09 92.82 36.08 91.3 36.08 C88.86 36.06 86.43 36.06 83.99 36.05 C77.92 36.04 71.85 36.01 65.78 35.99 C29.82 35.5 29.82 35.5 -6 38 C-6 38.66 -6 39.32 -6 40 C-7.65 41.35 -9.32 42.69 -11 44 C-11.5 44.99 -11.5 44.99 -12 46 C-12.99 46 -13.98 46 -15 46 C-15.5 46.99 -15.5 46.99 -16 48 C-15.34 48 -14.68 48 -14 48 C-14.01 48.87 -14.01 48.87 -14.01 49.76 C-14.06 55.79 -14.09 61.83 -14.11 67.86 C-14.12 70.11 -14.13 72.37 -14.15 74.62 C-14.18 77.85 -14.19 81.09 -14.2 84.33 C-14.21 85.34 -14.22 86.34 -14.23 87.38 C-14.23 88.32 -14.23 89.26 -14.23 90.23 C-14.23 91.47 -14.23 91.47 -14.24 92.73 C-13.97 95.24 -13.13 96.77 -12 99 C-12 100.32 -12 101.64 -12 103 C-11.01 103.33 -10.02 103.66 -9 104 C-9 104.66 -9 105.32 -9 106 C-8.03 106.14 -7.06 106.29 -6.06 106.44 C-3 107 -3 107 -2 108 C0.03 108.1 2.07 108.14 4.11 108.14 C4.75 108.15 5.39 108.15 6.06 108.16 C8.23 108.17 10.41 108.17 12.59 108.17 C14.14 108.18 15.69 108.19 17.25 108.19 C20.6 108.21 23.95 108.22 27.31 108.23 C32.6 108.25 37.9 108.27 43.2 108.29 C58.27 108.37 73.33 108.43 88.4 108.48 C96.71 108.51 105.03 108.54 113.35 108.58 C118.62 108.61 123.89 108.63 129.16 108.64 C132.43 108.65 135.71 108.67 138.98 108.69 C140.5 108.69 142.03 108.7 143.55 108.7 C145.62 108.7 147.7 108.71 149.77 108.73 C150.93 108.73 152.09 108.74 153.29 108.74 C156 109 156 109 158 111 C158.23 113.98 158.23 113.98 158.2 117.76 C158.19 118.42 158.19 119.08 158.19 119.77 C158.18 121.89 158.15 124.01 158.12 126.12 C158.11 127.56 158.11 129 158.1 130.43 C158.08 133.96 158.04 137.48 158 141 C135.43 141.12 112.87 141.2 90.3 141.26 C79.82 141.28 69.35 141.32 58.87 141.38 C49.74 141.43 40.6 141.46 31.47 141.47 C26.63 141.48 21.8 141.49 16.96 141.53 C12.41 141.56 7.86 141.57 3.31 141.57 C1.64 141.57 -0.03 141.58 -1.7 141.6 C-15.89 141.75 -15.89 141.75 -20.41 138.55 C-21.26 137.71 -22.12 136.87 -23 136 C-24.3 135.2 -25.6 134.42 -26.94 133.69 C-27.95 133.13 -28.96 132.57 -30 132 C-30 131.34 -30 130.68 -30 130 C-30.84 129.66 -30.84 129.66 -31.69 129.31 C-39.89 124.66 -44.2 115.09 -47.35 106.54 C-48.73 101.15 -48.45 95.57 -48.43 90.04 C-48.44 88.69 -48.44 87.34 -48.45 85.99 C-48.46 83.16 -48.46 80.34 -48.45 77.51 C-48.43 73.92 -48.45 70.33 -48.48 66.74 C-48.5 63.95 -48.5 61.16 -48.5 58.37 C-48.5 56.41 -48.51 54.45 -48.53 52.49 C-48.46 43.41 -47.1 35.66 -42 28 C-42 27.01 -42 26.02 -42 25 C-39.81 22.62 -39.81 22.62 -37 20 C-35.79 18.76 -35.79 18.76 -34.56 17.5 C-32.7 15.69 -30.87 14.02 -28.88 12.38 C-26.1 10.2 -26.1 10.2 -24.38 8.19 C-23 7 -23 7 -19 7 C-18.01 6.34 -17.02 5.68 -16 5 C-13.08 4.59 -13.08 4.59 -9.81 4.38 C-8.73 4.3 -7.64 4.23 -6.52 4.15 C-5.69 4.1 -4.86 4.05 -4 4 C-4 3.34 -4 2.68 -4 2 C-2.68 2 -1.36 2 0 2 C0 1.34 0 0.68 0 0 Z M-9 36 C-9.33 36.99 -9.66 37.98 -10 39 C-9.01 38.67 -8.02 38.34 -7 38 C-7 37.34 -7 36.68 -7 36 C-7.66 36 -8.32 36 -9 36 Z " fill="#FAFCFC" transform="translate(699,1)"/>
<path d="M0 0 C1.39 0.05 1.39 0.05 2.81 0.1 C6.63 0.31 9.44 0.58 12.8 2.46 C14.96 6.43 14.65 10.19 14.5 14.62 C14.49 15.93 14.49 15.93 14.47 17.27 C14.36 23.66 14.36 23.66 13.19 26 C13.85 26.33 14.51 26.66 15.19 27 C15.03 27.63 14.86 28.25 14.7 28.9 C14 33.15 14.04 37.32 14.06 41.62 C14.06 42.48 14.05 43.34 14.05 44.23 C14.05 45.46 14.05 45.46 14.05 46.73 C14.06 47.85 14.06 47.85 14.06 48.99 C14.12 51.21 14.12 51.21 15.19 54 C24.19 54.19 33.2 54.33 42.21 54.41 C46.39 54.46 50.57 54.51 54.75 54.6 C58.79 54.69 62.83 54.74 66.87 54.76 C68.41 54.77 69.95 54.8 71.48 54.85 C79.81 55.32 79.81 55.32 87.37 52.53 C89.18 50.46 90.65 48.27 92.19 46 C93.74 44.33 95.34 42.68 96.96 41.07 C97.83 40.19 98.69 39.31 99.59 38.41 C100.5 37.49 101.41 36.57 102.36 35.63 C102.83 35.15 103.3 34.68 103.79 34.18 C106.29 31.67 108.79 29.16 111.29 26.65 C113.87 24.07 116.44 21.47 119.01 18.88 C121 16.87 122.99 14.88 124.98 12.88 C126.4 11.46 127.8 10.04 129.21 8.62 C130.06 7.76 130.92 6.91 131.81 6.03 C132.56 5.27 133.31 4.52 134.08 3.74 C138.24 0.31 142.88 0.84 148.06 0.83 C148.82 0.83 149.58 0.83 150.36 0.82 C151.96 0.82 153.57 0.81 155.17 0.81 C157.61 0.81 160.06 0.79 162.5 0.78 C164.06 0.77 165.62 0.77 167.18 0.77 C167.91 0.76 168.64 0.76 169.39 0.75 C173.43 0.77 176.55 1.21 180.19 3 C180.19 7 180.19 7 178.85 8.52 C178.21 9.02 177.57 9.52 176.92 10.03 C171.11 14.83 165.86 20.16 160.54 25.48 C159.43 26.58 158.33 27.68 157.22 28.78 C154.93 31.08 152.63 33.37 150.33 35.67 C147.39 38.61 144.44 41.54 141.49 44.48 C139.22 46.74 136.95 49.01 134.67 51.28 C133.59 52.37 132.5 53.45 131.41 54.53 C129.9 56.04 128.39 57.55 126.88 59.07 C125.59 60.35 125.59 60.35 124.27 61.67 C122.4 63.76 121.34 65.48 120.19 68 C119.53 68.66 118.87 69.32 118.19 70 C118.55 72.83 119.28 75.29 120.19 78 C121.51 78.68 122.85 79.34 124.19 80 C125.82 81.45 127.41 82.96 128.95 84.5 C129.84 85.39 130.73 86.27 131.65 87.19 C132.57 88.12 133.49 89.04 134.44 90 C135.37 90.93 136.31 91.86 137.27 92.81 C138.16 93.7 139.04 94.59 139.95 95.5 C140.77 96.31 141.58 97.13 142.42 97.97 C144.19 100 144.19 100 144.19 102 C145.18 102.33 146.17 102.66 147.19 103 C147.19 103.66 147.19 104.32 147.19 105 C148.07 105.41 148.07 105.41 148.98 105.83 C154.99 109.01 160.29 114.47 164.19 120 C164.19 120.66 164.19 121.32 164.19 122 C164.74 122.23 165.3 122.45 165.88 122.69 C168.85 124.37 170.83 126.53 173.19 129 C174.58 130.33 174.58 130.33 176 131.69 C178.19 134 178.19 134 178.19 136 C178.85 136 179.51 136 180.19 136 C180.52 137.32 180.85 138.64 181.19 140 C165.68 140 150.17 140 134.19 140 C133.53 138.02 132.87 136.04 132.19 134 C130.41 132.86 130.41 132.86 128.19 132 C124.65 129.2 121.2 126.36 118.19 123 C118.19 122.34 118.19 121.68 118.19 121 C117.2 120.67 116.21 120.34 115.19 120 C113 118.06 113 118.06 111.19 116 C111.19 115.34 111.19 114.68 111.19 114 C110.2 113.67 109.21 113.34 108.19 113 C108.19 112.34 108.19 111.68 108.19 111 C107.2 110.67 106.21 110.34 105.19 110 C103.83 108.35 102.5 106.68 101.19 105 C99.7 104.01 99.7 104.01 98.19 103 C98.19 102.34 98.19 101.68 98.19 101 C96.7 100.5 96.7 100.5 95.19 100 C93.36 98.22 93.36 98.22 91.5 96.06 C90.88 95.35 90.25 94.64 89.61 93.91 C88.19 92 88.19 92 88.19 90 C83.75 88.3 80.1 87.76 75.36 87.77 C74.7 87.77 74.05 87.77 73.37 87.77 C71.23 87.77 69.09 87.79 66.95 87.8 C65.45 87.81 63.96 87.81 62.46 87.81 C58.55 87.82 54.63 87.84 50.72 87.86 C46.71 87.88 42.71 87.89 38.71 87.9 C30.87 87.92 23.03 87.96 15.19 88 C15.02 89.42 14.86 90.84 14.7 92.25 C14.6 93.04 14.51 93.83 14.42 94.65 C13.73 100.49 13.73 100.49 15.19 106 C15.27 108.55 15.3 111.08 15.29 113.63 C15.28 114.3 15.28 114.97 15.28 115.65 C15.28 118.14 15.26 120.63 15.25 123.12 C15.23 128.69 15.21 134.26 15.19 140 C3.64 140 -7.91 140 -19.81 140 C-20.47 138.68 -21.13 137.36 -21.81 136 C-21.48 135.67 -21.15 135.34 -20.81 135 C-20.65 133.15 -20.56 131.29 -20.5 129.43 C-20.45 128.31 -20.41 127.18 -20.37 126.03 C-20.33 124.84 -20.29 123.66 -20.25 122.44 C-20.21 121.25 -20.16 120.06 -20.12 118.84 C-20.01 115.89 -19.91 112.95 -19.81 110 C-20.47 109.67 -21.13 109.34 -21.81 109 C-21.81 108.01 -21.81 107.02 -21.81 106 C-21.15 106 -20.49 106 -19.81 106 C-19.97 105.03 -20.14 104.07 -20.3 103.07 C-20.93 98.65 -20.95 94.27 -20.94 89.81 C-20.94 88.91 -20.95 88.02 -20.95 87.1 C-20.95 84.17 -20.95 81.23 -20.95 78.3 C-20.95 76.25 -20.95 74.21 -20.95 72.16 C-20.95 67.88 -20.95 63.61 -20.94 59.33 C-20.94 53.84 -20.94 48.36 -20.95 42.87 C-20.95 38.65 -20.95 34.43 -20.95 30.21 C-20.95 28.19 -20.95 26.17 -20.95 24.14 C-20.95 21.32 -20.95 18.5 -20.94 15.67 C-20.94 14.84 -20.95 14 -20.95 13.13 C-20.94 9.83 -20.86 7.15 -19.81 4 C-13.62 -0.29 -7.26 -0.51 0 0 Z M12.19 89 C12.85 89.66 13.51 90.32 14.19 91 C14.19 90.34 14.19 89.68 14.19 89 C13.53 89 12.87 89 12.19 89 Z M11.19 90 C12.19 92 12.19 92 12.19 92 Z " fill="#FAFBFB" transform="translate(888.8125,2)"/>
<path d="M0 0 C0.99 0.5 0.99 0.5 2 1 C3.57 1.12 5.15 1.18 6.73 1.21 C7.71 1.23 8.69 1.25 9.7 1.27 C10.76 1.28 11.82 1.3 12.91 1.32 C14.54 1.35 14.54 1.35 16.2 1.38 C19.68 1.44 23.15 1.5 26.62 1.56 C28.98 1.61 31.33 1.65 33.68 1.69 C39.45 1.8 45.23 1.9 51 2 C51.33 1.34 51.66 0.68 52 0 C52 0.66 52 1.32 52 2 C52.84 1.96 53.68 1.93 54.54 1.89 C57.64 1.76 60.75 1.64 63.85 1.52 C65.86 1.44 67.87 1.35 69.87 1.27 C71.13 1.22 72.38 1.17 73.68 1.12 C74.84 1.07 76 1.03 77.2 0.98 C80 1 80 1 82 2 C82 12.56 82 23.12 82 34 C78.69 35.66 74.99 35.11 71.35 35.08 C70.45 35.08 69.55 35.08 68.63 35.07 C66.68 35.07 64.73 35.06 62.78 35.04 C59.69 35.03 56.6 35.02 53.51 35.01 C44.72 34.98 35.94 34.95 27.15 34.9 C21.78 34.88 16.41 34.86 11.04 34.85 C8.99 34.84 6.95 34.83 4.9 34.82 C2.03 34.8 -0.83 34.79 -3.7 34.79 C-4.54 34.78 -5.38 34.77 -6.25 34.76 C-11.22 34.77 -15.29 35.41 -20 37 C-19.36 37.93 -18.72 38.86 -18.06 39.81 C-16 43 -16 43 -15 46 C-13.52 46.49 -13.52 46.49 -12 47 C-12 47.66 -12 48.32 -12 49 C-11.34 49 -10.68 49 -10 49 C-8.6 50.83 -8.6 50.83 -7.06 53.25 C-3.29 59.33 -3.29 59.33 2 64 C6 69.67 6 69.67 6 73 C6.56 73.21 7.11 73.41 7.69 73.62 C10.97 75.58 12.71 77.94 15 81 C15 81.66 15 82.32 15 83 C15.99 83.33 16.98 83.66 18 84 C19.19 87.06 19.19 87.06 20 90 C20.66 90 21.32 90 22 90 C22 90.66 22 91.32 22 92 C22.99 92.33 23.98 92.66 25 93 C30.67 101.83 30.91 110.7 30 121 C29.19 124.67 28.3 127.99 26 131 C23.36 132.25 23.36 132.25 21 133 C21.66 133.33 22.32 133.66 23 134 C21.35 136.85 19.62 139 17 141 C12.8 142.03 8.69 141.89 4.39 141.79 C2.48 141.8 2.48 141.8 0.54 141.8 C-2.93 141.8 -6.39 141.76 -9.86 141.71 C-13.49 141.67 -17.11 141.66 -20.74 141.65 C-27.61 141.63 -34.47 141.57 -41.33 141.5 C-49.15 141.43 -56.96 141.39 -64.78 141.35 C-80.85 141.28 -96.93 141.16 -113 141 C-113.06 139.71 -113.12 138.42 -113.18 137.09 C-113.27 135.37 -113.35 133.65 -113.44 131.94 C-113.48 131.09 -113.52 130.24 -113.56 129.37 C-113.75 125.53 -114.02 121.87 -114.66 118.07 C-115 115 -115 115 -113 112 C-113 111.01 -113 110.02 -113 109 C-112.01 108.5 -112.01 108.5 -111 108 C-111 108.66 -111 109.32 -111 110 C-110.01 109.5 -110.01 109.5 -109 109 C-107.63 108.91 -106.26 108.88 -104.89 108.88 C-104.03 108.88 -103.17 108.88 -102.28 108.88 C-101.33 108.88 -100.38 108.88 -99.41 108.89 C-98.41 108.89 -97.42 108.89 -96.39 108.89 C-93.09 108.89 -89.79 108.89 -86.49 108.9 C-84.21 108.9 -81.92 108.91 -79.64 108.91 C-73.62 108.91 -67.6 108.92 -61.58 108.93 C-55.44 108.94 -49.3 108.95 -43.16 108.95 C-31.11 108.96 -19.05 108.98 -7 109 C-7.47 108.24 -7.95 107.47 -8.44 106.69 C-10 104 -10 104 -11 101 C-11.66 101 -12.32 101 -13 101 C-14.75 98.38 -15.39 96.96 -16 94 C-16.66 94 -17.32 94 -18 94 C-18 93.34 -18 92.68 -18 92 C-19.48 91.5 -19.48 91.5 -21 91 C-22.69 89.56 -22.69 89.56 -24 88 C-24 87.34 -24 86.68 -24 86 C-24.66 86 -25.32 86 -26 86 C-26.33 84.68 -26.66 83.36 -27 82 C-27.66 82 -28.32 82 -29 82 C-30.42 80.28 -31.77 78.5 -33.06 76.69 C-33.78 75.7 -34.49 74.72 -35.22 73.7 C-37 71 -37 71 -38 68 C-38.66 68 -39.32 68 -40 68 C-41.68 65.97 -43.26 63.94 -44.81 61.81 C-47.29 58.45 -49.68 55.31 -52.68 52.39 C-58.1 46.82 -59.25 39.54 -59.31 32 C-59.24 28.64 -59.06 26.19 -58 23 C-58.66 22.67 -59.32 22.34 -60 22 C-59.34 21.59 -58.68 21.18 -58 20.75 C-57.34 20.17 -56.68 19.59 -56 19 C-56 17.68 -56 16.36 -56 15 C-55.34 15 -54.68 15 -54 15 C-53.67 14.34 -53.34 13.68 -53 13 C-51.28 11.45 -49.49 10 -47.69 8.54 C-45.77 6.91 -45.77 6.91 -44 4 C-35.67 0.57 -25.21 1.78 -16.38 1.88 C-14.78 1.89 -13.19 1.89 -11.6 1.9 C-7.73 1.92 -3.87 1.96 0 2 C0 1.34 0 0.68 0 0 Z M2 68 C3 70 3 70 3 70 Z M26 98 C27 101 27 101 27 101 Z " fill="#FAFBFB" transform="translate(1198,1)"/>
<path d="M0 0 C0.89 -0 1.78 -0.01 2.69 -0.01 C3.66 -0 4.63 0.01 5.63 0.01 C7.17 0.01 7.17 0.01 8.74 0.01 C12.13 0.01 15.52 0.03 18.91 0.05 C21.26 0.05 23.61 0.05 25.96 0.05 C32.15 0.06 38.34 0.08 44.53 0.1 C50.85 0.12 57.16 0.13 63.48 0.14 C75.87 0.16 88.26 0.2 100.65 0.24 C100.65 0.9 100.65 1.56 100.65 2.24 C115.17 1.91 129.69 1.58 144.65 1.24 C144.65 1.9 144.65 2.56 144.65 3.24 C126.16 3.26 107.67 3.28 89.18 3.29 C80.6 3.3 72.01 3.3 63.43 3.32 C55.94 3.33 48.46 3.33 40.97 3.33 C37.01 3.34 33.05 3.34 29.09 3.35 C25.35 3.35 21.62 3.36 17.89 3.35 C15.87 3.35 13.86 3.36 11.85 3.36 C5.36 3.36 -0.92 3.12 -7.35 2.24 C-4.22 0.16 -3.55 -0.01 0 0 Z " fill="#E9E8E6" transform="translate(708.3469696044922,111.75949096679688)"/>
<path d="M0 0 C1.23 -0 1.23 -0 2.49 -0.01 C3.82 0 3.82 0 5.18 0.01 C6.58 0.01 6.58 0.01 8 0.01 C11.05 0.02 14.09 0.04 17.13 0.06 C19.21 0.06 21.29 0.07 23.38 0.07 C39.87 0.14 56.34 0.53 72.82 1.24 C73.31 2.73 73.31 2.73 73.82 4.24 C53.78 5.14 33.81 5.37 13.76 5.31 C10.03 5.3 6.29 5.3 2.55 5.29 C-4.69 5.28 -11.94 5.26 -19.18 5.24 C-19.18 4.91 -19.18 4.58 -19.18 4.24 C-15.55 4.24 -11.92 4.24 -8.18 4.24 C-8.18 3.58 -8.18 2.92 -8.18 2.24 C-5.32 0.62 -3.28 -0.01 0 0 Z " fill="#F7F7F7" transform="translate(521.184814453125,105.757080078125)"/>
<path d="M0 0 C27.05 -0.15 54.09 0.07 81.13 0.41 C83.65 0.44 86.16 0.47 88.68 0.5 C105.31 0.7 121.94 0.94 138.56 1.41 C140.02 1.45 141.48 1.49 142.94 1.53 C144.94 1.58 146.94 1.64 148.93 1.7 C150.06 1.74 151.19 1.77 152.35 1.8 C155 2 155 2 157 3 C156.67 3.66 156.34 4.32 156 5 C155.46 4.84 154.93 4.67 154.38 4.51 C151.52 3.9 148.9 3.88 145.97 3.89 C144.74 3.89 143.5 3.89 142.23 3.89 C140.86 3.89 139.5 3.9 138.13 3.9 C136.69 3.9 135.25 3.91 133.81 3.91 C130.71 3.91 127.61 3.92 124.51 3.92 C119.6 3.94 114.7 3.94 109.79 3.95 C98.5 3.96 87.2 3.98 75.91 4.01 C65.56 4.03 55.21 4.04 44.86 4.05 C39.98 4.06 35.11 4.07 30.23 4.08 C27.2 4.09 24.17 4.09 21.13 4.09 C19.73 4.1 18.32 4.1 16.92 4.11 C15 4.11 13.08 4.11 11.16 4.11 C10.08 4.12 9.01 4.12 7.9 4.12 C5.16 4.01 2.67 3.62 0 3 C0 2.01 0 1.02 0 0 Z " fill="#ECEBEB" transform="translate(269,112)"/>
<path d="M0 0 C13.69 -0.05 27.38 -0.08 41.08 -0.1 C47.44 -0.11 53.79 -0.13 60.15 -0.15 C66.3 -0.17 72.45 -0.18 78.59 -0.19 C80.93 -0.19 83.26 -0.2 85.6 -0.21 C97.9 -0.27 109.86 -0.17 122 2 C122 2.33 122 2.66 122 3 C109.87 4.15 97.8 4.13 85.63 4.1 C83.5 4.1 81.37 4.09 79.24 4.09 C73.67 4.09 68.1 4.08 62.54 4.07 C56.84 4.06 51.14 4.05 45.44 4.05 C34.29 4.04 23.15 4.02 12 4 C12 3.67 12 3.34 12 3 C8.04 2.67 4.08 2.34 0 2 C0 1.34 0 0.68 0 0 Z " fill="#EFEEED" transform="translate(46,58)"/>
<path d="M0 0 C3.57 0.56 4.92 1.69 7.12 4.5 C9.2 7.19 9.2 7.19 12 9 C12 9.66 12 10.32 12 11 C12.59 11.26 13.18 11.52 13.78 11.79 C16.14 13.07 17.65 14.45 19.5 16.38 C20.11 17 20.71 17.62 21.34 18.26 C22.6 19.58 23.87 20.92 25.12 22.25 C26.96 24.09 26.96 24.09 29.31 25.38 C35.41 29.06 40.89 34.16 45 40 C45 40.66 45 41.32 45 42 C45.56 42.23 46.11 42.45 46.69 42.69 C49.66 44.37 51.65 46.53 54 49 C54.93 49.89 55.86 50.77 56.81 51.69 C59 54 59 54 59 56 C59.66 56 60.32 56 61 56 C61.49 57.98 61.49 57.98 62 60 C60.35 60 58.7 60 57 60 C56.75 59.41 56.49 58.82 56.23 58.21 C54.85 55.74 53.44 54.46 51.25 52.69 C47.94 49.89 45.19 46.98 42.45 43.64 C40.96 41.95 39.39 40.59 37.62 39.19 C36.76 38.47 35.89 37.74 35 37 C35 36.34 35 35.68 35 35 C34.4 34.74 33.8 34.47 33.18 34.2 C30.88 32.93 29.79 31.8 28.19 29.75 C25.52 26.48 22.63 23.87 19.32 21.26 C18.67 20.64 18.67 20.64 18 20 C18 19.34 18 18.68 18 18 C17.41 17.75 16.82 17.49 16.21 17.23 C13.74 15.85 12.46 14.44 10.69 12.25 C7.81 8.83 4.8 5.99 1.29 3.23 C0.86 2.82 0.44 2.42 0 2 C0 1.34 0 0.68 0 0 Z " fill="#ABAAA9" transform="translate(1008,82)"/>
<path d="M0 0 C36.3 0 72.6 0 110 0 C110.5 0.99 110.5 0.99 111 2 C92.95 2.96 74.95 3.1 56.88 3 C51.73 2.97 46.58 2.95 41.43 2.94 C40.27 2.93 39.1 2.92 37.91 2.91 C36.82 2.91 35.74 2.91 34.62 2.9 C33.68 2.9 32.74 2.89 31.76 2.89 C28.77 3.01 25.94 3.49 23 4 C21.05 3.95 19.1 3.84 17.16 3.66 C16.1 3.57 15.04 3.47 13.94 3.38 C12.85 3.27 11.75 3.17 10.62 3.06 C8.95 2.91 8.95 2.91 7.24 2.76 C4.49 2.51 1.75 2.26 -1 2 C-0.67 1.34 -0.34 0.68 0 0 Z " fill="#FBFCFC" transform="translate(267,56)"/>
<path d="M0 0 C0 0.33 0 0.66 0 1 C-14.66 2.27 -29.3 2.17 -44 2 C-44.96 1.99 -45.92 1.98 -46.9 1.97 C-53.52 1.89 -60.13 1.79 -66.75 1.68 C-69 1.64 -71.25 1.61 -73.5 1.58 C-76.69 1.53 -79.88 1.48 -83.07 1.41 C-84.04 1.4 -85.02 1.39 -86.02 1.38 C-86.91 1.36 -87.8 1.34 -88.72 1.32 C-89.5 1.31 -90.28 1.29 -91.09 1.28 C-93 1 -93 1 -95 -1 C-18.4 -2.69 -18.4 -2.69 0 0 Z " fill="#EDECEC" transform="translate(1188,114)"/>
<path d="M0 0 C1.83 -0.02 1.83 -0.02 3.7 -0.04 C11.9 -0.05 19.69 0.69 27.75 2.19 C27.75 2.52 27.75 2.85 27.75 3.19 C20.47 3.96 13.31 4.33 5.99 4.27 C4.94 4.27 3.89 4.27 2.81 4.26 C-0.88 4.24 -4.56 4.22 -8.25 4.19 C-9.71 4.18 -11.16 4.17 -12.62 4.16 C-21.57 4.09 -30.53 4.01 -39.48 3.9 C-43.77 3.85 -48.06 3.8 -52.35 3.77 C-56.58 3.73 -60.8 3.68 -65.03 3.63 C-66.62 3.61 -68.21 3.6 -69.81 3.58 C-72.01 3.57 -74.22 3.54 -76.42 3.51 C-77.67 3.49 -78.92 3.48 -80.21 3.47 C-83.25 3.19 -83.25 3.19 -86.25 1.19 C-84.9 1.19 -84.9 1.19 -83.52 1.19 C-75.06 1.21 -66.6 1.23 -58.14 1.24 C-53.79 1.24 -49.44 1.25 -45.09 1.26 C-40.89 1.27 -36.7 1.28 -32.5 1.28 C-30.9 1.28 -29.29 1.29 -27.69 1.29 C-25.45 1.3 -23.21 1.3 -20.97 1.3 C-19.7 1.3 -18.42 1.31 -17.1 1.31 C-11.64 1.08 -6 0 0 0 Z " fill="#EFEEEE" transform="translate(135.25,111.8125)"/>
<path d="M0 0 C2.22 1.76 2.94 2.72 3.52 5.53 C3.59 6.53 3.66 7.54 3.73 8.57 C3.81 9.68 3.89 10.8 3.98 11.95 C4.05 13.14 4.12 14.34 4.19 15.56 C4.27 16.77 4.35 17.99 4.43 19.23 C6 44.71 6 44.71 4 53 C2 52 2 52 1.41 50.35 C-0.57 38.97 -0.13 27.08 -0.06 15.56 C-0.06 14.04 -0.05 12.52 -0.05 11 C-0.04 7.33 -0.02 3.67 0 0 Z " fill="#F6F6F6" transform="translate(651,54)"/>
<path d="M0 0 C0.88 -0 1.75 -0 2.66 -0 C12.56 0.08 22.35 1.08 32.19 2.19 C32.19 2.52 32.19 2.85 32.19 3.19 C-0.27 6.01 -33.3 3.85 -65.81 3.19 C-65.81 2.86 -65.81 2.53 -65.81 2.19 C-65.13 2.18 -64.44 2.17 -63.74 2.16 C-56.63 2.05 -49.53 1.93 -42.42 1.82 C-39.77 1.77 -37.12 1.73 -34.46 1.69 C-30.65 1.63 -26.85 1.57 -23.04 1.5 C-21.85 1.49 -20.65 1.47 -19.42 1.45 C-18.32 1.43 -17.22 1.41 -16.09 1.39 C-15.12 1.38 -14.14 1.36 -13.14 1.35 C-8.74 1.05 -4.63 -0 0 0 Z " fill="#F1F1F0" transform="translate(564.8125,77.8125)"/>
<path d="M0 0 C0.99 0.33 1.98 0.66 3 1 C-15.81 19.81 -34.62 38.62 -54 58 C-54.99 57.67 -55.98 57.34 -57 57 C-56.01 56.34 -55.02 55.68 -54 55 C-53.67 54.01 -53.34 53.02 -53 52 C-52.34 52 -51.68 52 -51 52 C-51 51.34 -51 50.68 -51 50 C-50.24 49.57 -49.47 49.13 -48.69 48.69 C-45.67 46.79 -44.73 45.05 -43 42 C-42.34 42 -41.68 42 -41 42 C-40.34 40.68 -39.68 39.36 -39 38 C-38.34 38 -37.68 38 -37 38 C-36.67 37.01 -36.34 36.02 -36 35 C-34.67 34.67 -33.33 34.33 -32 34 C-31.67 33.01 -31.34 32.02 -31 31 C-30.34 31 -29.68 31 -29 31 C-29 30.01 -29 29.02 -29 28 C-25.67 25 -25.67 25 -23 25 C-23 24.01 -23 23.02 -23 22 C-22.01 22 -21.02 22 -20 22 C-20 21.34 -20 20.68 -20 20 C-18.36 18.31 -16.69 16.65 -15 15 C-14.44 14.24 -13.89 13.47 -13.31 12.69 C-12.88 12.13 -12.45 11.57 -12 11 C-11.34 11 -10.68 11 -10 11 C-9.73 10.4 -9.46 9.8 -9.19 9.19 C-7.12 5.38 -4.8 3.9 -1 2 C-0.67 1.34 -0.34 0.68 0 0 Z " fill="#B2B1B0" transform="translate(1065,8)"/>
<path d="M0 0 C16.94 -0.08 33.87 0.18 50.81 0.5 C53.46 0.55 56.11 0.6 58.76 0.64 C65.18 0.76 71.59 0.88 78 1 C78 1.33 78 1.66 78 2 C63.48 2.33 48.96 2.66 34 3 C34 3.33 34 3.66 34 4 C29.34 4.02 24.67 4.04 20.01 4.05 C18.42 4.06 16.84 4.07 15.25 4.08 C12.97 4.09 10.69 4.09 8.41 4.1 C7.35 4.11 7.35 4.11 6.26 4.11 C1.23 4.11 1.23 4.11 -1 3 C-0.67 2.01 -0.34 1.02 0 0 Z " fill="#F7F7F7" transform="translate(476,78)"/>
<path d="M0 0 C4.92 4.12 9.51 8.42 14 13 C16.65 15.66 19.3 18.3 21.97 20.94 C23 21.96 24.03 22.98 25.06 24 C25.58 24.51 26.1 25.02 26.63 25.54 C28.97 27.87 31.13 30.16 33.18 32.75 C34.98 35.2 34.98 35.2 38 37 C38 37.66 38 38.32 38 39 C38.99 39.5 38.99 39.5 40 40 C40 40.66 40 41.32 40 42 C39.34 42 38.68 42 38 42 C38 41.34 38 40.68 38 40 C37.41 39.73 36.82 39.47 36.21 39.19 C33.97 37.98 32.5 36.75 30.7 34.96 C30.08 34.34 29.46 33.73 28.82 33.1 C28.16 32.44 27.51 31.78 26.83 31.09 C26.15 30.41 25.46 29.73 24.76 29.03 C23.32 27.59 21.89 26.16 20.45 24.71 C18.25 22.5 16.04 20.3 13.82 18.1 C12.43 16.7 11.03 15.3 9.64 13.91 C8.98 13.24 8.31 12.58 7.62 11.9 C7.02 11.29 6.41 10.67 5.78 10.04 C5.24 9.5 4.7 8.96 4.15 8.4 C3 7 3 7 3 5 C1.68 4.34 0.36 3.68 -1 3 C-0.67 2.01 -0.34 1.02 0 0 Z " fill="#A2A19F" transform="translate(979,90)"/>
<path d="M0 0 C26.02 -0.13 51.99 0.13 78 1 C78 1.33 78 1.66 78 2 C55.23 2 32.46 2 9 2 C16.92 2.33 24.84 2.66 33 3 C33 3.33 33 3.66 33 4 C28.78 4.02 24.56 4.04 20.35 4.05 C18.91 4.06 17.48 4.07 16.04 4.08 C13.98 4.09 11.92 4.09 9.86 4.1 C8.61 4.1 7.37 4.11 6.09 4.11 C3 4 3 4 0 3 C0 2.01 0 1.02 0 0 Z " fill="#F7F7F7" transform="translate(43,112)"/>
<path d="M0 0 C0.95 -0.01 1.9 -0.01 2.89 -0.02 C4.44 -0.01 4.44 -0.01 6.03 -0.01 C7.1 -0.01 8.17 -0.01 9.27 -0.01 C11.55 -0.01 13.83 -0.01 16.11 -0 C19.55 0.01 22.99 -0 26.43 -0.01 C37.92 -0.02 49.09 0.21 60.42 2.26 C60.42 2.59 60.42 2.92 60.42 3.26 C47.11 4.61 33.78 4.36 20.42 4.26 C20.42 3.93 20.42 3.6 20.42 3.26 C11.51 2.93 2.6 2.6 -6.58 2.26 C-4.11 -0.21 -3.4 0.01 0 0 Z " fill="#F4F4F4" transform="translate(107.578857421875,57.7412109375)"/>
<path d="M0 0 C7.83 -0.09 15.57 -0.11 23.38 0.56 C29.05 1.03 34.37 0.84 40 0 C40 0.66 40 1.32 40 2 C39.04 2.09 39.04 2.09 38.07 2.18 C37.24 2.27 36.41 2.35 35.56 2.44 C34.74 2.52 33.92 2.6 33.07 2.68 C31.01 2.79 31.01 2.79 30 4 C25.76 4.25 21.5 4.19 17.25 4.19 C16.06 4.2 14.86 4.21 13.63 4.22 C11.9 4.23 11.9 4.23 10.14 4.23 C9.08 4.23 8.03 4.24 6.94 4.24 C3.92 3.99 1.73 3.27 -1 2 C-0.67 1.34 -0.34 0.68 0 0 Z " fill="#F7F7F7" transform="translate(261,58)"/>
<path d="M0 0 C3.57 0.56 4.92 1.69 7.12 4.5 C9.2 7.19 9.2 7.19 12 9 C12 9.66 12 10.32 12 11 C12.59 11.26 13.17 11.52 13.78 11.79 C18.74 14.49 22.85 19.36 26 24 C22 24 22 24 19.75 22.12 C18 20 18 20 18 18 C17.41 17.75 16.82 17.49 16.21 17.23 C13.74 15.85 12.46 14.44 10.69 12.25 C7.81 8.83 4.8 5.99 1.29 3.23 C0.86 2.82 0.44 2.42 0 2 C0 1.34 0 0.68 0 0 Z " fill="#AAA9A8" transform="translate(1008,82)"/>
<path d="M0 0 C0.99 0.33 1.98 0.66 3 1 C-5.58 9.58 -14.16 18.16 -23 27 C-23.99 26.67 -24.98 26.34 -26 26 C-25.01 25.34 -24.02 24.68 -23 24 C-22.67 23.01 -22.34 22.02 -22 21 C-21.34 21 -20.68 21 -20 21 C-20 20.34 -20 19.68 -20 19 C-19.24 18.57 -18.47 18.13 -17.69 17.69 C-14.67 15.79 -13.73 14.05 -12 11 C-11.34 11 -10.68 11 -10 11 C-9.34 9.68 -8.68 8.36 -8 7 C-7.34 7 -6.68 7 -6 7 C-5.67 6.01 -5.34 5.02 -5 4 C-3.67 3.67 -2.33 3.33 -1 3 C-0.67 2.01 -0.34 1.02 0 0 Z " fill="#B3B3B2" transform="translate(1034,39)"/>
<path d="M0 0 C2.34 -0.34 2.34 -0.34 5.23 -0.29 C6.77 -0.28 6.77 -0.28 8.35 -0.26 C9.43 -0.24 10.51 -0.21 11.62 -0.19 C12.71 -0.17 13.8 -0.16 14.92 -0.15 C17.62 -0.11 20.31 -0.06 23 0 C23 0.99 23 1.98 23 3 C14.75 3 6.5 3 -2 3 C-1.34 2.01 -0.68 1.02 0 0 Z " fill="#F7F7F7" transform="translate(826,35)"/>
<path d="M0 0 C0.73 0 1.46 0.01 2.22 0.01 C2.94 0.01 3.65 0 4.39 0 C8.21 0.01 11.76 0.22 15.47 1.14 C15.47 2.13 15.47 3.12 15.47 4.14 C8.21 4.14 0.95 4.14 -6.53 4.14 C-6.53 -0.97 -4.56 0.01 0 0 Z " fill="#F6F6F6" transform="translate(258.53125,6.86328125)"/>
<path d="M0 0 C19.14 0 38.28 0 58 0 C58 0.33 58 0.66 58 1 C38.86 1 19.72 1 0 1 C0 0.67 0 0.34 0 0 Z " fill="#FBFCFC" transform="translate(58,108)"/>
<path d="M0 0 C4.49 2.18 7.15 5.27 10.3 9.01 C11.71 10.66 13.22 12.22 14.75 13.75 C16.73 15.73 18.39 17.71 20 20 C16.43 18.5 14.31 16.43 11.69 13.62 C8.94 10.79 6.52 8.49 3 6.69 C0 5 0 5 -1 2.81 C-1 1 -1 1 0 0 Z " fill="#F7F7F7" transform="translate(1011,87)"/>
<path d="M0 0 C7.13 3.03 12.32 10.05 17 16 C17.99 16.66 18.98 17.32 20 18 C20 18.66 20 19.32 20 20 C20.66 20.33 21.32 20.66 22 21 C22 21.66 22 22.32 22 23 C21.34 23 20.68 23 20 23 C20 22.34 20 21.68 20 21 C19.42 20.75 18.85 20.5 18.25 20.25 C14.82 18.35 12.61 16.07 10.67 12.66 C8.84 9.75 6.79 7.63 4.31 5.25 C2.86 3.85 1.42 2.44 0 1 C0 0.67 0 0.34 0 0 Z " fill="#ADADAC" transform="translate(997,109)"/>
<path d="M0 0 C16.83 0 33.66 0 51 0 C51 0.33 51 0.66 51 1 C34.17 1 17.34 1 0 1 C0 0.67 0 0.34 0 0 Z " fill="#FCFCFC" transform="translate(266,108)"/>
<path d="M0 0 C16.5 0 33 0 50 0 C50 0.33 50 0.66 50 1 C33.5 1 17 1 0 1 C0 0.67 0 0.34 0 0 Z " fill="#FBFDFD" transform="translate(754,108)"/>
<path d="M0 0 C5.71 2.56 10.02 6.66 12.44 12.44 C12.62 13.28 12.81 14.13 13 15 C12.01 14.67 11.02 14.34 10 14 C9.67 13.01 9.34 12.02 9 11 C7.02 9.16 4.93 7.5 2.81 5.82 C0.85 3.85 0.38 2.71 0 0 Z " fill="#A8A7A6" transform="translate(1054,127)"/>
<path d="M0 0 C0.66 0 1.32 0 2 0 C3.57 6.07 4.18 12.45 1 18 C-1.39 5.99 -1.39 5.99 -1 1 C-0.67 0.67 -0.34 0.34 0 0 Z " fill="#F7F7F7" transform="translate(466,113)"/>
<path d="M0 0 C4.95 0 9.9 0 15 0 C15 0.99 15 1.98 15 3 C10.05 3 5.1 3 0 3 C0 2.01 0 1.02 0 0 Z " fill="#F7F7F7" transform="translate(321,30)"/>
<path d="M0 0 C0.66 0 1.32 0 2 0 C2.95 4.76 3.08 9.17 3 14 C1.68 13.67 0.36 13.34 -1 13 C-1.03 11.21 -1.05 9.42 -1.06 7.62 C-1.07 6.63 -1.09 5.63 -1.1 4.6 C-1 2 -1 2 0 0 Z " fill="#F7F7F7" transform="translate(1142,29)"/>
<path d="M0 0 C0.66 0 1.32 0 2 0 C2.7 6.51 3.32 12.55 2 19 C1.34 19 0.68 19 0 19 C0 12.73 0 6.46 0 0 Z " fill="#F7F7F7" transform="translate(600,123)"/>
<path d="M0 0 C3.84 1.57 6.16 4.02 9 7 C9.93 7.89 10.86 8.77 11.81 9.69 C14 12 14 12 14 14 C14.66 14 15.32 14 16 14 C16.33 15.32 16.66 16.64 17 18 C16.01 18 15.02 18 14 18 C13.67 17.18 13.34 16.35 13 15.5 C10.22 9.89 5.14 5.42 0 2 C0 1.34 0 0.68 0 0 Z " fill="#FAFBFB" transform="translate(1053,124)"/>
<path d="M0 0 C12.54 0 25.08 0 38 0 C38 0.33 38 0.66 38 1 C25.46 1 12.92 1 0 1 C0 0.67 0 0.34 0 0 Z " fill="#FCFCFC" transform="translate(351,108)"/>
<path d="M0 0 C7.11 3.31 12.14 8.98 17 15 C16.67 15.66 16.34 16.32 16 17 C15.29 16.29 14.59 15.59 13.86 14.86 C11.95 12.95 10.03 11.04 8.11 9.14 C7.13 8.18 6.16 7.21 5.19 6.25 C4.69 5.76 4.18 5.26 3.67 4.75 C2.43 3.52 1.21 2.26 0 1 C0 0.67 0 0.34 0 0 Z " fill="#FCFCFC" transform="translate(1036,107)"/>
<path d="M0 0 C2.33 1.16 3.43 2.47 5.12 4.44 C5.66 5.05 6.2 5.67 6.76 6.31 C8 8 8 8 8 10 C3.62 8.66 1.46 6.88 -1 3 C-0.67 2.01 -0.34 1.02 0 0 Z " fill="#AEADAB" transform="translate(1149,53)"/>
<path d="M0 0 C4.92 4.12 9.53 8.4 14 13 C13.67 13.66 13.34 14.32 13 15 C12.41 14.39 11.82 13.77 11.21 13.14 C10.42 12.33 9.63 11.52 8.81 10.69 C8.04 9.89 7.26 9.09 6.46 8.26 C4.1 6.09 1.8 4.54 -1 3 C-0.67 2.01 -0.34 1.02 0 0 Z " fill="#AAA9A7" transform="translate(979,90)"/>
<path d="M0 0 C7.11 4.58 7.11 4.58 9 7 C9 7.99 9 8.98 9 10 C4.6 8.65 2.53 6.84 0 3 C0 2.01 0 1.02 0 0 Z " fill="#C2C1C0" transform="translate(187,10)"/>
<path d="M0 0 C0 4.13 -2.2 5.83 -4.88 8.69 C-5.34 9.2 -5.8 9.71 -6.27 10.24 C-7.47 11.54 -8.73 12.77 -10 14 C-10.66 14 -11.32 14 -12 14 C-10.41 10.1 -7.87 7.66 -4.88 4.75 C-3.96 3.86 -3.05 2.97 -2.12 2.05 C-1.42 1.37 -0.72 0.7 0 0 Z " fill="#C0C0BF" transform="translate(1025,4)"/>
<path d="M0 0 C0.99 0.33 1.98 0.66 3 1 C0.03 3.97 -2.94 6.94 -6 10 C-6.99 9.34 -7.98 8.68 -9 8 C-8.01 7.67 -7.02 7.34 -6 7 C-5.67 6.01 -5.34 5.02 -5 4 C-3.67 3.67 -2.33 3.33 -1 3 C-0.67 2.01 -0.34 1.02 0 0 Z " fill="#B6B6B5" transform="translate(1034,39)"/>
<path d="M0 0 C3.17 0.34 3.98 0.97 6.12 3.44 C6.74 4.28 7.36 5.13 8 6 C8.66 6.66 9.32 7.32 10 8 C8.68 8.33 7.36 8.66 6 9 C4.99 7.88 4 6.75 3 5.62 C2.44 5 1.89 4.37 1.31 3.73 C0 2 0 2 0 0 Z " fill="#B4B3B2" transform="translate(611,11)"/>
<path d="M0 0 C5.25 2.17 7.23 6.24 10 11 C6.85 9.63 4.95 8.12 2.75 5.5 C2.23 4.89 1.71 4.28 1.17 3.66 C0 2 0 2 0 0 Z " fill="#AFAEAC" transform="translate(1033,106)"/>
<path d="M0 0 C8.58 0 17.16 0 26 0 C26 0.33 26 0.66 26 1 C17.42 1 8.84 1 0 1 C0 0.67 0 0.34 0 0 Z " fill="#FCFCFC" transform="translate(319,108)"/>
<path d="M0 0 C0 3.5 -0.54 4.06 -2.75 6.62 C-3.26 7.24 -3.77 7.85 -4.3 8.48 C-6.2 10.18 -7.51 10.6 -10 11 C-6.79 7.19 -3.59 3.45 0 0 Z " fill="#B4B4B2" transform="translate(1011,18)"/>
<path d="M0 0 C7.92 0 15.84 0 24 0 C24 0.33 24 0.66 24 1 C16.08 1 8.16 1 0 1 C0 0.67 0 0.34 0 0 Z " fill="#FCFCFC" transform="translate(712,108)"/>
<path d="M0 0 C7.59 0 15.18 0 23 0 C23 0.33 23 0.66 23 1 C15.41 1 7.82 1 0 1 C0 0.67 0 0.34 0 0 Z " fill="#FBFCFC" transform="translate(1137,108)"/>
<path d="M0 0 C0.66 0.33 1.32 0.66 2 1 C-1.8 4.92 -5.82 8.49 -10 12 C-8.26 8.23 -6.1 5.79 -3 3 C-2.34 3 -1.68 3 -1 3 C-0.67 2.01 -0.34 1.02 0 0 Z " fill="#CBCAC9" transform="translate(455,10)"/>
<path d="M0 0 C7.26 0 14.52 0 22 0 C22 0.33 22 0.66 22 1 C14.74 1 7.48 1 0 1 C0 0.67 0 0.34 0 0 Z " fill="#FCFCFC" transform="translate(117,108)"/>
<path d="M0 0 C6.6 0 13.2 0 20 0 C20 0.33 20 0.66 20 1 C13.4 1 6.8 1 0 1 C0 0.67 0 0.34 0 0 Z " fill="#FCFCFC" transform="translate(141,108)"/>
<path d="M0 0 C4.62 0 9.24 0 14 0 C14 0.33 14 0.66 14 1 C9.38 1 4.76 1 0 1 C0 0.67 0 0.34 0 0 Z " fill="#FBFDFD" transform="translate(1103,108)"/>
<path d="M0 0 C0.33 0 0.66 0 1 0 C1 4.29 1 8.58 1 13 C0.67 13 0.34 13 0 13 C0 8.71 0 4.42 0 0 Z " fill="#FCFCFC" transform="translate(217,65)"/>
<path d="M0 0 C3.96 0 7.92 0 12 0 C12 0.33 12 0.66 12 1 C8.04 1 4.08 1 0 1 C0 0.67 0 0.34 0 0 Z " fill="#FCFCFC" transform="translate(1165,108)"/>
<path d="M0 0 C3.63 0 7.26 0 11 0 C11 0.33 11 0.66 11 1 C7.37 1 3.74 1 0 1 C0 0.67 0 0.34 0 0 Z " fill="#FCFCFC" transform="translate(835,108)"/>
<path d="M0 0 C3.3 0 6.6 0 10 0 C10 0.33 10 0.66 10 1 C6.7 1 3.4 1 0 1 C0 0.67 0 0.34 0 0 Z " fill="#FBFDFD" transform="translate(811,108)"/>
<path d="M0 0 C0.66 0.33 1.32 0.66 2 1 C0.35 2.32 -1.3 3.64 -3 5 C-1.12 1.12 -1.12 1.12 0 0 Z " fill="#C6C5C4" transform="translate(667,12)"/>
<path d="M0 0 C2.64 0 5.28 0 8 0 C8 0.33 8 0.66 8 1 C5.36 1 2.72 1 0 1 C0 0.67 0 0.34 0 0 Z " fill="#FBFDFD" transform="translate(741,108)"/>
<path d="M0 0 C2.64 0 5.28 0 8 0 C8 0.33 8 0.66 8 1 C5.36 1 2.72 1 0 1 C0 0.67 0 0.34 0 0 Z " fill="#FCFCFC" transform="translate(390,108)"/>
<path d="M0 0 C0 0.99 0 1.98 0 3 C-0.99 3.66 -1.98 4.32 -3 5 C-1.12 1.12 -1.12 1.12 0 0 Z " fill="#A6A5A4" transform="translate(234,14)"/>
<path d="M0 0 C2.31 0 4.62 0 7 0 C7 0.33 7 0.66 7 1 C4.69 1 2.38 1 0 1 C0 0.67 0 0.34 0 0 Z " fill="#FBFDFD" transform="translate(1121,108)"/>
<path d="M0 0 C1.98 0 3.96 0 6 0 C6 0.33 6 0.66 6 1 C4.02 1 2.04 1 0 1 C0 0.67 0 0.34 0 0 Z " fill="#FBFDFD" transform="translate(1130,108)"/>
<path d="M0 0 C1.98 0 3.96 0 6 0 C6 0.33 6 0.66 6 1 C4.02 1 2.04 1 0 1 C0 0.67 0 0.34 0 0 Z " fill="#FCFCFC" transform="translate(39,108)"/>
<path d="M0 0 C0.66 0.33 1.32 0.66 2 1 C0.02 1.99 0.02 1.99 -2 3 C-1.34 2.01 -0.68 1.02 0 0 Z " fill="#B9B8B8" transform="translate(228,20)"/>
<path d="M0 0 C0.33 0 0.66 0 1 0 C1 1.65 1 3.3 1 5 C0.67 5 0.34 5 0 5 C0 3.35 0 1.7 0 0 Z " fill="#FCFCFC" transform="translate(217,88)"/>
<path d="M0 0 C0.33 0 0.66 0 1 0 C1 1.65 1 3.3 1 5 C0.67 5 0.34 5 0 5 C0 3.35 0 1.7 0 0 Z " fill="#FCFCFC" transform="translate(1137,29)"/>
<path d="M0 0 C0 0.99 0 1.98 0 3 C-0.66 2.67 -1.32 2.34 -2 2 C-1.34 1.34 -0.68 0.68 0 0 Z " fill="#A9A8A7" transform="translate(655,28)"/>
<path d="M0 0 C0 0.99 0 1.98 0 3 C-0.66 2.67 -1.32 2.34 -2 2 C-1.34 1.34 -0.68 0.68 0 0 Z " fill="#A7A5A3" transform="translate(238,10)"/>
<path d="M0 0 C0 0.99 0 1.98 0 3 C-0.66 2.67 -1.32 2.34 -2 2 C-1.34 1.34 -0.68 0.68 0 0 Z " fill="#BCBBBA" transform="translate(678,5)"/>
<path d="M0 0 C1 4 1 4 1 4 Z " fill="#FCFCFC" transform="translate(1083,138)"/>
<path d="M0 0 C4 1 4 1 4 1 Z " fill="#FCFCFC" transform="translate(1090,108)"/>
<path d="M0 0 C4 1 4 1 4 1 Z " fill="#FBFDFD" transform="translate(805,108)"/>
<path d="M0 0 C1 4 1 4 1 4 Z " fill="#FCFCFC" transform="translate(217,80)"/>
<path d="M0 0 C1 4 1 4 1 4 Z " fill="#FCFCFC" transform="translate(217,55)"/>
<path d="M0 0 C4 1 4 1 4 1 Z " fill="#FCFCFC" transform="translate(284,53)"/>
<path d="M0 0 C3 1 3 1 3 1 Z " fill="#FBFDFD" transform="translate(1099,108)"/>
<path d="M0 0 C3 1 3 1 3 1 Z " fill="#FBFDFD" transform="translate(825,108)"/>
<path d="M0 0 C3 1 3 1 3 1 Z " fill="#FBFDFD" transform="translate(750,108)"/>
<path d="M0 0 C3 1 3 1 3 1 Z " fill="#FBFDFD" transform="translate(737,108)"/>
<path d="M0 0 C3 1 3 1 3 1 Z " fill="#FCFCFC" transform="translate(707,108)"/>
<path d="M0 0 C3 1 3 1 3 1 Z " fill="#FBFDFD" transform="translate(346,108)"/>
<path d="M0 0 C3 1 3 1 3 1 Z " fill="#FCFCFC" transform="translate(46,108)"/>
<path d="M0 0 C0.33 0.66 0.66 1.32 1 2 C0.34 1.67 -0.32 1.34 -1 1 C-0.67 0.67 -0.34 0.34 0 0 Z " fill="#BBBBBA" transform="translate(166,106)"/>
<path d="M0 0 C3 1 3 1 3 1 Z " fill="#FCFCFC" transform="translate(905,54)"/>
<path d="M0 0 C0.33 0.66 0.66 1.32 1 2 C0.34 1.67 -0.32 1.34 -1 1 C-0.67 0.67 -0.34 0.34 0 0 Z " fill="#ECEBE9" transform="translate(169,52)"/>
<path d="M0 0 C0.33 0.66 0.66 1.32 1 2 C0.34 1.67 -0.32 1.34 -1 1 C-0.67 0.67 -0.34 0.34 0 0 Z " fill="#FCFCFC" transform="translate(1028,49)"/>
<path d="M0 0 C3 1 3 1 3 1 Z " fill="#131111" transform="translate(804,37)"/>
<path d="M0 0 C0.33 0.66 0.66 1.32 1 2 C0.34 1.67 -0.32 1.34 -1 1 C-0.67 0.67 -0.34 0.34 0 0 Z " fill="#C2C1C1" transform="translate(225,23)"/>
<path d="" fill="#FCFCFC" transform="translate(0,0)"/>
<path d="" fill="#FCFCFC" transform="translate(0,0)"/>
<path d="M0 0 C2 1 2 1 2 1 Z " fill="#FBFDFD" transform="translate(1185,108)"/>
<path d="M0 0 C2 1 2 1 2 1 Z " fill="#FBFDFD" transform="translate(1096,108)"/>
<path d="M0 0 C2 1 2 1 2 1 Z " fill="#FCFCFC" transform="translate(832,108)"/>
<path d="M0 0 C2 1 2 1 2 1 Z " fill="#FCFCFC" transform="translate(702,108)"/>
<path d="M0 0 C2 1 2 1 2 1 Z " fill="#FBFDFD" transform="translate(400,108)"/>
<path d="" fill="#CFCECE" transform="translate(0,0)"/>
<path d="" fill="#FCFCFC" transform="translate(0,0)"/>
<path d="" fill="#FCFCFC" transform="translate(0,0)"/>
<path d="M0 0 C2 1 2 1 2 1 Z " fill="#0D0D0D" transform="translate(39,37)"/>
<path d="M0 0 C2 1 2 1 2 1 Z " fill="#B7B6B5" transform="translate(662,17)"/>
<path d="" fill="#FCFCFC" transform="translate(0,0)"/>
<path d="M0 0 C2 1 2 1 2 1 Z " fill="#FCFCFC" transform="translate(870,3)"/>
<path d="" fill="#BFBFBF" transform="translate(0,0)"/>
<path d="" fill="#FCFCFC" transform="translate(0,0)"/>
<path d="" fill="#E0DEDE" transform="translate(0,0)"/>
<path d="" fill="#ECEBE9" transform="translate(0,0)"/>
<path d="" fill="#FCFCFC" transform="translate(0,0)"/>
<path d="" fill="#FCFCFC" transform="translate(0,0)"/>
<path d="" fill="#FBFDFD" transform="translate(0,0)"/>
<path d="" fill="#FBFDFD" transform="translate(0,0)"/>
<path d="" fill="#BFBFBF" transform="translate(0,0)"/>
<path d="" fill="#FCFCFC" transform="translate(0,0)"/>
<path d="" fill="#F7F7F7" transform="translate(0,0)"/>
<path d="" fill="#FCFCFC" transform="translate(0,0)"/>
<path d="" fill="#FCFCFC" transform="translate(0,0)"/>
<path d="" fill="#F7F7F7" transform="translate(0,0)"/>
<path d="" fill="#F7F7F7" transform="translate(0,0)"/>
<path d="" fill="#F7F7F7" transform="translate(0,0)"/>
<path d="" fill="#FBFDFD" transform="translate(0,0)"/>
<path d="" fill="#FCFCFC" transform="translate(0,0)"/>
<path d="" fill="#BFBFBF" transform="translate(0,0)"/>
<path d="" fill="#FCFCFC" transform="translate(0,0)"/>
<path d="" fill="#FCFCFC" transform="translate(0,0)"/>
<path d="" fill="#FCFCFC" transform="translate(0,0)"/>
<path d="" fill="#FCFCFC" transform="translate(0,0)"/>
<path d="" fill="#FCFCFC" transform="translate(0,0)"/>
<path d="" fill="#FCFCFC" transform="translate(0,0)"/>
<path d="" fill="#F7F7F7" transform="translate(0,0)"/>
<path d="" fill="#FCFCFC" transform="translate(0,0)"/>
<path d="" fill="#FCFCFC" transform="translate(0,0)"/>
<path d="" fill="#FCFCFC" transform="translate(0,0)"/>
<path d="" fill="#FCFCFC" transform="translate(0,0)"/>
<path d="" fill="#FCFCFC" transform="translate(0,0)"/>
<path d="" fill="#F7F7F7" transform="translate(0,0)"/>
<path d="" fill="#FCFCFC" transform="translate(0,0)"/>
<path d="" fill="#F7F7F7" transform="translate(0,0)"/>
<path d="" fill="#FCFCFC" transform="translate(0,0)"/>
<path d="" fill="#ECEBE9" transform="translate(0,0)"/>
<path d="" fill="#FCFCFC" transform="translate(0,0)"/>
<path d="" fill="#FCFCFC" transform="translate(0,0)"/>
<path d="" fill="#FCFCFC" transform="translate(0,0)"/>
<path d="" fill="#FCFCFC" transform="translate(0,0)"/>
<path d="" fill="#FCFCFC" transform="translate(0,0)"/>
<path d="" fill="#ECEBE9" transform="translate(0,0)"/>
<path d="" fill="#FCFCFC" transform="translate(0,0)"/>
<path d="" fill="#FBFDFD" transform="translate(0,0)"/>
<path d="" fill="#FCFCFC" transform="translate(0,0)"/>
<path d="" fill="#A9A8A7" transform="translate(0,0)"/>
<path d="" fill="#FCFCFC" transform="translate(0,0)"/>
<path d="" fill="#FCFCFC" transform="translate(0,0)"/>
<path d="" fill="#D1D1D1" transform="translate(0,0)"/>
<path d="" fill="#FCFCFC" transform="translate(0,0)"/>
<path d="" fill="#FCFCFC" transform="translate(0,0)"/>
<path d="" fill="#FCFCFC" transform="translate(0,0)"/>
<path d="" fill="#9D9C9A" transform="translate(0,0)"/>
<path d="" fill="#FCFCFC" transform="translate(0,0)"/>
<path d="" fill="#FCFCFC" transform="translate(0,0)"/>
<path d="" fill="#FCFCFC" transform="translate(0,0)"/>
<path d="" fill="#F7F7F7" transform="translate(0,0)"/>
<path d="" fill="#FCFCFC" transform="translate(0,0)"/>
<path d="" fill="#F7F7F7" transform="translate(0,0)"/>
<path d="" fill="#908C89" transform="translate(0,0)"/>
<path d="" fill="#F7F7F7" transform="translate(0,0)"/>
<path d="" fill="#F7F7F7" transform="translate(0,0)"/>
<path d="" fill="#F7F7F7" transform="translate(0,0)"/>
<path d="" fill="#F7F7F7" transform="translate(0,0)"/>
<path d="" fill="#F7F7F7" transform="translate(0,0)"/>
<path d="" fill="#595957" transform="translate(0,0)"/>
<path d="" fill="#F7F7F7" transform="translate(0,0)"/>
<path d="" fill="#F7F7F7" transform="translate(0,0)"/>
<path d="" fill="#D1D1D1" transform="translate(0,0)"/>
<path d="" fill="#FCFCFC" transform="translate(0,0)"/>
<path d="" fill="#F7F7F7" transform="translate(0,0)"/>
<path d="" fill="#F7F7F7" transform="translate(0,0)"/>
<path d="" fill="#FCFCFC" transform="translate(0,0)"/>
<path d="" fill="#F7F7F7" transform="translate(0,0)"/>
<path d="" fill="#F7F7F7" transform="translate(0,0)"/>
<path d="" fill="#FCFCFC" transform="translate(0,0)"/>
<path d="" fill="#F7F7F7" transform="translate(0,0)"/>
<path d="" fill="#F7F7F7" transform="translate(0,0)"/>
<path d="" fill="#F7F7F7" transform="translate(0,0)"/>
<path d="" fill="#B4B3B1" transform="translate(0,0)"/>
<path d="" fill="#F7F7F7" transform="translate(0,0)"/>
<path d="" fill="#F7F7F7" transform="translate(0,0)"/>
<path d="" fill="#F7F7F7" transform="translate(0,0)"/>
<path d="" fill="#F7F7F7" transform="translate(0,0)"/>
<path d="" fill="#F7F7F7" transform="translate(0,0)"/>
<path d="" fill="#A9A8A7" transform="translate(0,0)"/>
<path d="" fill="#FCFCFC" transform="translate(0,0)"/>
<path d="" fill="#FCFCFC" transform="translate(0,0)"/>
<path d="" fill="#FCFCFC" transform="translate(0,0)"/>
<path d="" fill="#FCFCFC" transform="translate(0,0)"/>
<path d="" fill="#FCFCFC" transform="translate(0,0)"/>
<path d="" fill="#FCFCFC" transform="translate(0,0)"/>
<path d="" fill="#FCFCFC" transform="translate(0,0)"/>
<path d="" fill="#FCFCFC" transform="translate(0,0)"/>
<path d="" fill="#FCFCFC" transform="translate(0,0)"/>
<path d="" fill="#908C89" transform="translate(0,0)"/>
<path d="" fill="#BFBFBF" transform="translate(0,0)"/>
<path d="" fill="#FCFCFC" transform="translate(0,0)"/>
<path d="" fill="#B4B3B1" transform="translate(0,0)"/>
<path d="" fill="#FBFDFD" transform="translate(0,0)"/>
<path d="" fill="#FCFCFC" transform="translate(0,0)"/>
<path d="" fill="#FBFDFD" transform="translate(0,0)"/>
<path d="" fill="#FCFCFC" transform="translate(0,0)"/>
<path d="" fill="#FBFDFD" transform="translate(0,0)"/>
<path d="" fill="#FBFDFD" transform="translate(0,0)"/>
<path d="" fill="#FCFCFC" transform="translate(0,0)"/>
<path d="" fill="#B4B3B1" transform="translate(0,0)"/>
<path d="" fill="#D1D1D1" transform="translate(0,0)"/>
<path d="" fill="#FBFDFD" transform="translate(0,0)"/>
<path d="" fill="#FBFDFD" transform="translate(0,0)"/>
</svg>
